<svg xmlns="http://www.w3.org/2000/svg" width="24" height="22" viewBox="0 0 24 22">
  <path id="iconmonstr-heart-thin" d="M12,21.593C6.37,16.054,1,11.3,1,7.191A5.059,5.059,0,0,1,6.281,2C7.593,2,10.432,2.5,12,6.457c1.59-3.968,4.464-4.447,5.726-4.447A5.014,5.014,0,0,1,23,7.191c0,4.069-5.136,8.625-11,14.4M17.726,1.01A6.535,6.535,0,0,0,12,4.248,6.526,6.526,0,0,0,6.281,1,6.044,6.044,0,0,0,0,7.191C0,11.852,5.571,16.62,12,23c2.443-2.424,4.763-4.616,6.9-6.873,2.956-3.115,5.1-6.046,5.1-8.936A6.028,6.028,0,0,0,17.726,1.01" transform="translate(0 -1)" fill="#7a5cc5" fill-rule="evenodd"/>
</svg>
