<svg xmlns="http://www.w3.org/2000/svg" width="24" height="24" viewBox="0 0 24 24">
  <path id="iconmonstr-gear-thin" d="M12,8.666A3.333,3.333,0,1,0,15.333,12,3.337,3.337,0,0,0,12,8.666m0,7.667A4.334,4.334,0,1,1,16.333,12,4.337,4.337,0,0,1,12,16.333M10.807,23h2.386c.379-1.1.668-2.451,2.107-3.05,1.5-.617,2.666.2,3.635.672l1.686-1.688c-.508-1.047-1.266-2.2-.669-3.641.567-1.369,1.739-1.663,3.048-2.1V10.806c-1.235-.421-2.471-.708-3.047-2.1s.057-2.395.669-3.643L18.935,3.379c-1.117.547-2.221,1.257-3.642.668-1.374-.571-1.656-1.734-2.1-3.047H10.807c-.424,1.231-.7,2.468-2.1,3.046a2.744,2.744,0,0,1-1.077.226,5.989,5.989,0,0,1-2.566-.893L3.378,5.065C3.952,6.24,4.629,7.3,4.047,8.708c-.571,1.375-1.734,1.654-3.047,2.1v2.388c1.226.418,2.468.7,3.047,2.1s-.075,2.432-.669,3.643l1.687,1.687c1.45-.725,2.355-1.2,3.642-.669,1.378.572,1.655,1.738,2.1,3.047M13.9,24H10.1c-.681-1.918-.785-2.713-1.773-3.123-1.005-.419-1.731.132-3.466.952L2.17,19.14c.873-1.837,1.367-2.465.953-3.465S1.931,14.588,0,13.9V10.1c1.906-.678,2.712-.782,3.123-1.773S3.052,6.712,2.17,4.859L4.859,2.171C6.6,3,7.325,3.536,8.324,3.124S9.406,1.939,10.1,0h3.8c.682,1.918.788,2.714,1.774,3.123S17.384,3,19.142,2.171l2.687,2.688c-.878,1.847-1.361,2.477-.952,3.465S22.069,9.411,24,10.1V13.9c-1.906.677-2.713.782-3.124,1.773-.4.975.044,1.561.954,3.464l-2.688,2.689c-1.728-.82-2.467-1.37-3.456-.955S14.606,22.02,13.9,24" fill="#7a5cc5" fill-rule="evenodd"/>
</svg>
