<svg xmlns="http://www.w3.org/2000/svg" width="25.305" height="24" viewBox="0 0 25.305 24">
  <g id="그룹_228" data-name="그룹 228" transform="translate(-9535 10069)">
    <path id="iconmonstr-user-male-thin" d="M12,0C6.917,0,3.535,4.949,8.267,13.678c1.6,2.945-1.725,3.641-5.09,4.418C.1,18.805-.01,20.331,0,23l0,1h23.99l0-.969c.012-2.688-.093-4.223-3.177-4.935-3.438-.794-6.639-1.49-5.09-4.418C20.45,4.766,16.982,0,12,0m0,1a4.683,4.683,0,0,1,4.225,2.15c1.354,2.251.866,5.824-1.377,10.06a3.235,3.235,0,0,0-.283,2.932c.937,2.049,4.758,2.632,6.032,2.928,2.3.534,2.412,1.313,2.4,3.93H1c-.01-2.615.09-3.4,2.4-3.93,1.157-.266,5.138-.919,6.049-2.94a3.213,3.213,0,0,0-.3-2.929C6.915,9.086,6.4,5.437,7.741,3.189A4.7,4.7,0,0,1,12,1" transform="translate(9535 -10069)" fill="#7a5cc5" fill-rule="evenodd"/>
    <path id="iconmonstr-plus-5" d="M3.3,0a3.3,3.3,0,1,0,3.3,3.3A3.3,3.3,0,0,0,3.3,0ZM4.957,3.58H3.58V4.957H3.029V3.58H1.652V3.029H3.029V1.652H3.58V3.029H4.957Z" transform="translate(9553.695 -10059.305)" fill="#7a5cc5"/>
  </g>
</svg>
