<svg xmlns="http://www.w3.org/2000/svg" width="28.224" height="27.054" viewBox="0 0 28.224 27.054">
  <g id="그룹_863" data-name="그룹 863" transform="translate(-332.463 -277.175)">
    <path id="iconmonstr-star-thin" d="M17.01,9.279l9.046,1.258-6.584,6.377,1.607,9.055L13.027,21.63,4.975,25.97l1.608-9.055L0,10.537,9.044,9.279,13.027,1,17.01,9.279Zm-7.241,1-7.4,1.029,5.388,5.219L6.439,23.941l6.588-3.551,6.589,3.551L18.3,16.53l5.389-5.218-7.4-1.029L13.027,3.508Z" transform="translate(333.547 277.328)" fill="#7a5cc5" stroke="#7a5cc5" stroke-width="1" fill-rule="evenodd"/>
    <path id="패스_453" data-name="패스 453" d="M-4628.832-2172.6l3.242-7.369,3.464,7.812,6.853,1.326s-3.832,5.306-4.126,5.306.884,7.738.884,7.738l-7.075-3.021-7.443,4.2,1.474-8.4-5.969-5.822Z" transform="translate(4973 2459)" fill="#7a5cc5"/>
  </g>
</svg>
