<svg xmlns="http://www.w3.org/2000/svg" width="26.055" height="24.97" viewBox="0 0 26.055 24.97">
  <g id="그룹_878" data-name="그룹 878" transform="translate(-363.945 -278.328)">
    <path id="iconmonstr-star-thin" d="M17.01,9.279l9.046,1.258-6.584,6.377,1.607,9.055L13.027,21.63,4.975,25.97l1.608-9.055L0,10.537,9.044,9.279,13.027,1,17.01,9.279Zm-7.241,1-7.4,1.029,5.388,5.219L6.439,23.941l6.588-3.551,6.589,3.551L18.3,16.53l5.389-5.218-7.4-1.029L13.027,3.508Z" transform="translate(363.945 277.328)" fill="#7a5cc5" fill-rule="evenodd"/>
    <path id="패스_458" data-name="패스 458" d="M-5157.467-2721.436v17.27l-6.258,3.67.977-7.552-4.329-5.285,7.075-1.052Z" transform="translate(5534 3002)" fill="#7a5cc5" stroke="#7a5cc5" stroke-width="1"/>
  </g>
</svg>
