<svg xmlns="http://www.w3.org/2000/svg" width="24.66" height="24.66" viewBox="0 0 24.66 24.66">
  <path id="iconmonstr-user-circle-thin" d="M12.18,0A12.18,12.18,0,1,1,0,12.18,12.186,12.186,0,0,1,12.18,0Zm8.249,19.7a2.567,2.567,0,0,0-1.648-.863c-3.906-.92-4.159-1.524-4.417-2.09a2.219,2.219,0,0,1,.208-2.007c1.752-3.306,2.121-6.114,1.042-7.907a3.808,3.808,0,0,0-3.434-1.76A3.826,3.826,0,0,0,8.72,6.865c-1.082,1.816-.7,4.612,1.065,7.873a2.208,2.208,0,0,1,.223,2c-.269.595-.62,1.208-4.431,2.1A2.57,2.57,0,0,0,3.93,19.7a11.158,11.158,0,0,0,16.5,0Zm.66-.794a11.165,11.165,0,1,0-17.819,0,3.028,3.028,0,0,1,.376-.34,4.255,4.255,0,0,1,1.7-.717C7.406,17.38,8.777,17,9.083,16.324a1.266,1.266,0,0,0-.191-1.1C6.947,11.633,6.576,8.48,7.847,6.345A4.865,4.865,0,0,1,12.18,4.06a4.848,4.848,0,0,1,4.3,2.251c1.27,2.11.909,5.273-1.015,8.906a1.275,1.275,0,0,0-.182,1.11c.31.678,1.669,1.054,3.722,1.522a3.85,3.85,0,0,1,2.08,1.059Z" transform="translate(0.15 0.15)" fill="#7a5cc5" stroke="#7a5cc5" stroke-width="0.3" fill-rule="evenodd"/>
</svg>
