<svg xmlns="http://www.w3.org/2000/svg" width="20.481" height="23" viewBox="0 0 20.481 23">
  <path id="iconfinder_Notification_4737445" d="M22.75,15.018l-.445-.358a1.024,1.024,0,0,1-.384-.8V9.723a7.68,7.68,0,0,0-6.19-7.532,1.536,1.536,0,0,0-2.975,0,7.68,7.68,0,0,0-6.2,7.532v4.137a1.024,1.024,0,0,1-.384.8l-.445.358A4.608,4.608,0,0,0,4,18.6v.85c0,1.131.538,1.572,1.669,1.572H10.4a3.932,3.932,0,0,0,3.845,3.015,4.03,4.03,0,0,0,3.931-3.015h4.664c1.131,0,1.645-.441,1.645-1.572v-.84a4.608,4.608,0,0,0-1.731-3.594Zm-8.51,7.78c-1.443,0-1.891-1.144-2.255-1.773h4.657A2.769,2.769,0,0,1,14.241,22.8Zm8.6-3.346H5.669V18.6a2.976,2.976,0,0,1,.891-2.224l.335-.322a2.8,2.8,0,0,0,1.257-2.2V9.723a6.092,6.092,0,1,1,12.184,0v4.137a2.83,2.83,0,0,0,1.291,2.2l.3.322a3.022,3.022,0,0,1,.915,2.231Z" transform="translate(-4 -1.039)" fill="#7a5cc5"/>
</svg>
