<svg xmlns="http://www.w3.org/2000/svg" width="22.432" height="20.563" viewBox="0 0 22.432 20.563">
  <path id="iconmonstr-marketing-37" d="M22.431,10.353c.047-3.192-2.05-5.884-4.305-7.407A12.227,12.227,0,0,0,11.216,1C5.292,1,0,4.949,0,10.353A8.24,8.24,0,0,0,1.912,15.61C1.964,17.32.958,19.774.05,21.563a26.953,26.953,0,0,0,7.456-2.372,12.127,12.127,0,0,0,2.8.435C12,19.756,21.794,19.69,22.431,10.353ZM7.318,17.991a16.419,16.419,0,0,1-5.313,2,10.611,10.611,0,0,0,1.016-4.8,7.208,7.208,0,0,1-1.9-4.835c0-4.539,4.529-8.231,10.094-8.231S21.31,5.814,21.31,10.353c0,3.938-3.827,8.187-10.009,8.187a15.812,15.812,0,0,1-3.983-.55ZM11.764,6.839a.887.887,0,0,0-1.716.325A6.512,6.512,0,0,1,6.8,9.936a2.007,2.007,0,0,0-1.194,1.8,1.939,1.939,0,0,0,2.338,1.843l1.17,1.293a1,1,0,0,0,1.054.283l.682-.228a.815.815,0,0,0,.423-1.217l-.6-.937a5.014,5.014,0,0,1,1.631.044.882.882,0,0,0,1.5-.877l-2.037-5.1ZM9.01,12.155l1.2,1.865-.327.11L8.3,12.382l-.325.1a.967.967,0,0,1-1.237-.436.9.9,0,0,1,.536-1.156,7.75,7.75,0,0,0,3.7-3.18L12.594,11.8A5.893,5.893,0,0,0,9.01,12.155Zm7.814-2.38a4.582,4.582,0,0,1-.4,1.884l-.974-.421a3.567,3.567,0,0,0-1.935-4.777l.416-.976a4.612,4.612,0,0,1,2.9,4.289Zm-1.791-1.15a3.03,3.03,0,0,1-.049,2.41l-.956-.4a2.035,2.035,0,0,0,.039-1.62A2,2,0,0,0,12.91,7.888l.406-.963a3.048,3.048,0,0,1,1.716,1.7Z" transform="translate(0 -1)" fill="#7a5cc5" fill-rule="evenodd"/>
</svg>
