<svg xmlns="http://www.w3.org/2000/svg" width="24" height="22" viewBox="0 0 24 22">
  <g id="그룹_895" data-name="그룹 895" transform="translate(-24 -455)">
    <g id="다각형_1" data-name="다각형 1" transform="translate(24 455)" fill="none">
      <path d="M11.122,1.609a1,1,0,0,1,1.756,0L23.193,20.521A1,1,0,0,1,22.315,22H1.685a1,1,0,0,1-.878-1.479Z" stroke="none"/>
      <path d="M 12.00000095367432 2.401582717895508 L 1.937227249145508 20.84999656677246 L 22.06277084350586 20.84999656677246 L 12.00000095367432 2.401582717895508 M 12 1.08833122253418 C 12.34419441223145 1.08833122253418 12.68838882446289 1.262046813964844 12.87789916992188 1.609476089477539 L 23.19334983825684 20.52114486694336 C 23.55682945251465 21.18752670288086 23.07451820373535 21.99999618530273 22.31545829772949 21.99999618530273 L 1.684539794921875 21.99999618530273 C 0.9254798889160156 21.99999618530273 0.4431686401367188 21.18752670288086 0.8066482543945312 20.52114486694336 L 11.12210941314697 1.609476089477539 C 11.31161403656006 1.262046813964844 11.65580654144287 1.08833122253418 12 1.08833122253418 Z" stroke="none" fill="#7a5cc5"/>
    </g>
    <path id="패스_473" data-name="패스 473" d="M3.452-35.358a.692.692,0,0,1,.486-.673,1.223,1.223,0,0,1,.972,0,.692.692,0,0,1,.486.673v6.579a.692.692,0,0,1-.486.673,1.223,1.223,0,0,1-.972,0,.692.692,0,0,1-.486-.673Zm.1,10.326a1.164,1.164,0,0,1-.34-.847,1.164,1.164,0,0,1,.34-.847,1.162,1.162,0,0,1,.867-.347,1.168,1.168,0,0,1,.86.347,1.152,1.152,0,0,1,.347.847,1.152,1.152,0,0,1-.347.847,1.168,1.168,0,0,1-.86.347A1.162,1.162,0,0,1,3.556-25.032Z" transform="translate(31.831 499.071)" fill="#7a5cc5"/>
  </g>
</svg>
