<svg xmlns="http://www.w3.org/2000/svg" width="18.52" height="22" viewBox="0 0 18.52 22">
  <g id="그룹_900" data-name="그룹 900" transform="translate(-25.24 -562)">
    <path id="manual" d="M43.078,18.563H56.441a2.581,2.581,0,0,0,2.578-2.578V2.578A2.581,2.581,0,0,0,56.441,0H43.078A2.581,2.581,0,0,0,40.5,2.578V19.422A2.581,2.581,0,0,0,43.078,22H56.441a2.391,2.391,0,0,0,2.578-2.344,4.329,4.329,0,0,1-2.578.909H43.078c-.474,0-1.189-.435-1.189-.909A1.425,1.425,0,0,1,43.078,18.563ZM41.889,2.578A1.462,1.462,0,0,1,43.078,1.45H56.441a1.524,1.524,0,0,1,1.24,1.128V15.984c0,.474-.766,1.12-1.24,1.12H43.078c-.865.005-1.115.318-1.189.693Z" transform="translate(-15.26 562)" fill="#7a5cc5"/>
    <path id="패스_479" data-name="패스 479" d="M2.291.307a.654.654,0,0,1,.477.2.665.665,0,0,1,.2.488.648.648,0,0,1-.2.483.662.662,0,0,1-.477.2.674.674,0,0,1-.488-.2A.648.648,0,0,1,1.6,1,.665.665,0,0,1,1.8.51.665.665,0,0,1,2.291.307Zm.02-7.558a2.2,2.2,0,0,1,1.5.564,1.831,1.831,0,0,1,.64,1.437,1.807,1.807,0,0,1-.1.594,2.323,2.323,0,0,1-.249.513,8.075,8.075,0,0,1-.7.874,3.178,3.178,0,0,0-.569.8,1.582,1.582,0,0,0-.1.472q-.015.259-.015.574a.483.483,0,0,1-.117.34.378.378,0,0,1-.29.127.413.413,0,0,1-.3-.122.453.453,0,0,1-.122-.335q0-.406.02-.691a2.31,2.31,0,0,1,.142-.62,4.349,4.349,0,0,1,.792-1.163,2.139,2.139,0,0,0,.61-1.407.9.9,0,0,0-.335-.7,1.216,1.216,0,0,0-.833-.295,1.194,1.194,0,0,0-.731.218,1.059,1.059,0,0,0-.4.594.416.416,0,0,1-.178.254.513.513,0,0,1-.29.091.464.464,0,0,1-.35-.157.478.478,0,0,1-.107-.422A1.68,1.68,0,0,1,.96-6.829,2.292,2.292,0,0,1,2.311-7.251Z" transform="translate(32.186 574.149)" fill="#7a5cc5"/>
  </g>
</svg>
