<svg xmlns="http://www.w3.org/2000/svg" width="22.528" height="24.596" viewBox="0 0 22.528 24.596">
  <g id="그룹_897" data-name="그룹 897" transform="translate(-27.369 -605.929)">
    <path id="패스_477" data-name="패스 477" d="M4923.059-7058.861v-5.869l-5.8-5.792h-11.34v22.68h12.9" transform="translate(-4878 7677)" fill="none" stroke="#7a5cc5" stroke-linecap="round" stroke-width="1.1"/>
    <line id="선_130" data-name="선 130" y2="5.92" transform="translate(39.307 606.502)" fill="none" stroke="#7a5cc5" stroke-linecap="round" stroke-width="1.1"/>
    <line id="선_131" data-name="선 131" x1="5.381" transform="translate(39.307 612.421)" fill="none" stroke="#7a5cc5" stroke-linecap="round" stroke-width="1.1"/>
    <line id="선_132" data-name="선 132" x2="9.687" transform="translate(31.773 617.803)" fill="none" stroke="#7a5cc5" stroke-linecap="round" stroke-width="1.1"/>
    <line id="선_133" data-name="선 133" x2="5.381" transform="translate(31.773 620.816)" fill="none" stroke="#7a5cc5" stroke-linecap="round" stroke-width="1.1"/>
    <line id="선_134" data-name="선 134" x2="5.381" transform="translate(31.773 623.938)" fill="none" stroke="#7a5cc5" stroke-linecap="round" stroke-width="1.1"/>
    <path id="패스_478" data-name="패스 478" d="M4916.688-7056.6s1.7,8.411,4.827,8.442,4.776-8.442,4.776-8.442a14.881,14.881,0,0,1-2.237-.689,27.4,27.4,0,0,1-2.539-1.211,10.942,10.942,0,0,1-2.2,1.211A14.051,14.051,0,0,1,4916.688-7056.6Z" transform="translate(-4877.037 7678.132)" fill="none" stroke="#7a5cc5" stroke-width="1.1"/>
  </g>
</svg>
