<svg xmlns="http://www.w3.org/2000/svg" width="18" height="24.026" viewBox="0 0 18 24.026">
  <path id="iconmonstr-shield-1-thin" d="M12-.026C8.629,2.84,6.516,3,3,3V14.535c0,4.6,3.2,5.8,9,9.465,5.8-3.661,9-4.862,9-9.465V3C17.484,3,15.371,2.84,12-.026Zm0,1.453c2.942,2.31,4.966,2.52,7.846,2.566v10.43c0,3.891-2.484,4.9-7.846,8.239-5.375-3.35-7.865-4.257-7.865-8.127V3.993C7.015,3.947,9.058,3.737,12,1.427Zm5,7.6-5.992,6.623L7.336,11.723l.773-.754,2.9,3.141,5.226-5.781.766.7Z" transform="translate(-3 0.026)" fill="#7a5cc5" fill-rule="evenodd"/>
</svg>
