<svg xmlns="http://www.w3.org/2000/svg" width="19.958" height="19.958" viewBox="0 0 19.958 19.958">
  <g id="Search" transform="translate(-3.932 -3.931)">
    <path id="패스_430" data-name="패스 430" d="M23.264,20.243l-4.091-4.091a1.425,1.425,0,0,0-2.014,0l-.88-.88a6.953,6.953,0,1,0-1.007,1.007l.88.88a1.424,1.424,0,0,0,0,2.013l4.091,4.091a2.136,2.136,0,1,0,3.02-3.02ZM5.455,10.9A5.507,5.507,0,0,1,10.9,5.317,5.457,5.457,0,0,1,16.279,10.9,5.35,5.35,0,0,1,10.9,16.351,5.406,5.406,0,0,1,5.455,10.9Zm16.8,11.36a.729.729,0,0,1-1.007,0l-4.091-4.091,1.007-1.007,4.091,4.091a.713.713,0,0,1,0,1.007Z" fill="#7a5cc5"/>
  </g>
</svg>
