<svg xmlns="http://www.w3.org/2000/svg" width="32.001" height="30.552" viewBox="0 0 32.001 30.552">
  <g id="_1" data-name="1" transform="translate(-61.175 -47.188)">
    <path id="패스_419" data-name="패스 419" d="M133.637,202.327H112a1.172,1.172,0,0,1-1.2-1.138V183.138a1.205,1.205,0,0,1,2.407,0v16.914h19.227V183.138a1.205,1.205,0,0,1,2.407,0V201.19A1.172,1.172,0,0,1,133.637,202.327Z" transform="translate(-45.644 -124.587)" fill="#7a5cc5"/>
    <path id="패스_420" data-name="패스 420" d="M91.973,63.455a1.239,1.239,0,0,1-.851-.333L77.175,49.935,63.229,63.122a1.252,1.252,0,0,1-1.7,0,1.094,1.094,0,0,1,0-1.609L76.322,47.521a1.253,1.253,0,0,1,1.7,0l14.8,13.992a1.093,1.093,0,0,1,.26,1.24A1.206,1.206,0,0,1,91.973,63.455Z" transform="translate(0)" fill="#7a5cc5"/>
    <path id="패스_421" data-name="패스 421" d="M210.332,302.579h-6.979a1.172,1.172,0,0,1-1.2-1.138v-9.824a1.172,1.172,0,0,1,1.2-1.138h6.979a1.172,1.172,0,0,1,1.2,1.138v9.824A1.172,1.172,0,0,1,210.332,302.579Zm-5.776-2.275h4.572v-7.548h-4.572Z" transform="translate(-129.666 -224.839)" fill="#7a5cc5"/>
  </g>
</svg>
