<svg xmlns="http://www.w3.org/2000/svg" width="30.7" height="30.7" viewBox="0 0 30.7 30.7">
  <g id="Search" transform="translate(-3.932 -3.931)">
    <path id="패스_430" data-name="패스 430" d="M33.67,29.022l-6.293-6.293a2.192,2.192,0,0,0-3.1,0l-1.353-1.353a10.7,10.7,0,1,0-1.548,1.549l1.353,1.353a2.19,2.19,0,0,0,0,3.1l6.293,6.293a3.285,3.285,0,1,0,4.646-4.646ZM6.275,14.646a8.471,8.471,0,0,1,8.372-8.582,8.394,8.394,0,0,1,8.279,8.582,8.229,8.229,0,0,1-8.279,8.39,8.316,8.316,0,0,1-8.372-8.39ZM32.121,32.12a1.122,1.122,0,0,1-1.548,0l-6.293-6.294,1.549-1.548,6.293,6.293a1.1,1.1,0,0,1,0,1.549Z" transform="translate(0 0)" fill="gray"/>
  </g>
</svg>
