<svg xmlns="http://www.w3.org/2000/svg" width="26.442" height="22.035" viewBox="0 0 26.442 22.035">
  <path id="iconmonstr-photo-camera-thin" d="M18.713,2l1.549,2.324a2.2,2.2,0,0,0,1.833.982h4.33v18.73H-.017V5.305H6.516A2.2,2.2,0,0,0,8.35,4.324L9.9,2h8.814ZM22.1,6.407a3.3,3.3,0,0,1-2.75-1.473L18.123,3.1H10.488L9.266,4.935a3.3,3.3,0,0,1-2.75,1.472H1.085V22.933H25.323V6.407Zm-7.771,1.1a6.611,6.611,0,1,1-6.611,6.611A6.614,6.614,0,0,1,14.325,7.509Zm0,1.1a5.509,5.509,0,1,1-5.509,5.509A5.511,5.511,0,0,1,14.325,8.611Zm0,2.2a3.305,3.305,0,1,1-3.305,3.305A3.306,3.306,0,0,1,14.325,10.814Zm0,1.1a2.2,2.2,0,1,1-2.2,2.2A2.2,2.2,0,0,1,14.325,11.916Zm-8.814-2.2a1.1,1.1,0,1,0-1.1,1.1A1.1,1.1,0,0,0,5.511,9.712ZM2.205,3.1H5.512V4.2H2.205Z" transform="translate(0.017 -2)" fill="#fff" fill-rule="evenodd"/>
</svg>
