<svg xmlns="http://www.w3.org/2000/svg" width="22.096" height="25.113" viewBox="0 0 22.096 25.113">
  <g id="그룹_964" data-name="그룹 964" transform="translate(-361.904 -59)">
    <path id="iconfinder_Notification_4737445" d="M22.935,15.155l-.45-.362a1.034,1.034,0,0,1-.388-.807V9.809A7.756,7.756,0,0,0,15.846,2.2a1.551,1.551,0,0,0-3,0A7.756,7.756,0,0,0,6.585,9.809v4.178a1.034,1.034,0,0,1-.388.807l-.45.362A4.654,4.654,0,0,0,4,18.775v.858c0,1.142.543,1.588,1.686,1.588h4.773a3.971,3.971,0,0,0,3.883,3.045,4.07,4.07,0,0,0,3.97-3.045h4.71c1.142,0,1.661-.446,1.661-1.588v-.848a4.654,4.654,0,0,0-1.748-3.63Zm-8.594,7.856c-1.457,0-1.91-1.155-2.277-1.791h4.7A2.8,2.8,0,0,1,14.341,23.012Zm8.68-3.379H5.686v-.858a3.005,3.005,0,0,1,.9-2.246l.338-.325a2.828,2.828,0,0,0,1.269-2.217V9.809a6.152,6.152,0,1,1,12.3,0v4.178A2.857,2.857,0,0,0,21.8,16.2l.3.325a3.052,3.052,0,0,1,.924,2.253Z" transform="translate(357.904 59.848)" fill="gray"/>
    <circle id="타원_148" data-name="타원 148" cx="2" cy="2" r="2" transform="translate(380 59)" fill="#7a5cc5"/>
  </g>
</svg>
