<svg xmlns="http://www.w3.org/2000/svg" width="29.496" height="29.495" viewBox="0 0 29.496 29.495">
  <g id="그룹_335" data-name="그룹 335" transform="translate(0.1 0.1)">
    <path id="iconmonstr-user-circle-thin" d="M14.648,0A14.648,14.648,0,1,1,0,14.648,14.655,14.655,0,0,1,14.648,0Zm9.92,23.693a3.087,3.087,0,0,0-1.982-1.038c-4.7-1.106-5-1.832-5.312-2.513a2.669,2.669,0,0,1,.25-2.413c2.107-3.976,2.551-7.353,1.254-9.509A4.58,4.58,0,0,0,14.648,6.1a4.6,4.6,0,0,0-4.161,2.152c-1.3,2.184-.846,5.547,1.28,9.469a2.655,2.655,0,0,1,.269,2.41c-.323.715-.746,1.453-5.328,2.522A3.091,3.091,0,0,0,4.726,23.69a13.419,13.419,0,0,0,19.842,0Zm.793-.955a13.427,13.427,0,1,0-21.428,0,4.645,4.645,0,0,1,2.5-1.271c2.472-.564,4.121-1.02,4.49-1.833a1.522,1.522,0,0,0-.229-1.327C8.354,13.99,7.909,10.2,9.437,7.63a5.851,5.851,0,0,1,5.211-2.748A5.83,5.83,0,0,1,19.823,7.59c1.527,2.538,1.094,6.341-1.221,10.71a1.534,1.534,0,0,0-.218,1.335c.372.815,2.007,1.267,4.476,1.83A4.63,4.63,0,0,1,25.361,22.738Z" fill="#ac92ec" stroke="#ac92ec" stroke-width="0.2" fill-rule="evenodd"/>
  </g>
</svg>
