<svg xmlns="http://www.w3.org/2000/svg" width="17.17" height="21.83" viewBox="0 0 17.17 21.83">
  <g id="siren" transform="translate(-42.316 1.35)">
    <g id="그룹_924" data-name="그룹 924" transform="translate(42.666)">
      <g id="그룹_923" data-name="그룹 923">
        <path id="패스_492" data-name="패스 492" d="M57.306,98.144v-6.4a6.405,6.405,0,0,0-12.81,0v6.4a1.832,1.832,0,0,0-1.83,1.83v1.372a.457.457,0,0,0,.458.458H58.679a.457.457,0,0,0,.458-.458V99.974A1.832,1.832,0,0,0,57.306,98.144Zm-11.895-6.4a5.49,5.49,0,1,1,10.98,0v6.4H45.411Zm12.81,9.15H43.581v-.915a.916.916,0,0,1,.915-.915h12.81a.916.916,0,0,1,.915.915Z" transform="translate(-42.666 -81.674)" fill="#7a5cc5" stroke="#7a5cc5" stroke-width="0.7"/>
        <path id="패스_493" data-name="패스 493" d="M224.458,2.745a.457.457,0,0,0,.458-.458V.458a.458.458,0,0,0-.915,0v1.83A.457.457,0,0,0,224.458,2.745Z" transform="translate(-216.222 -1)" fill="#7a5cc5" stroke="#7a5cc5" stroke-width="0.7"/>
        <path id="패스_494" data-name="패스 494" d="M331.1,23.621a.456.456,0,0,0,.324-.134l1.373-1.373a.457.457,0,1,0-.647-.647l-1.373,1.372a.457.457,0,0,0,.323.781Z" transform="translate(-318.295 -20.419)" fill="#7a5cc5" stroke="#7a5cc5" stroke-width="0.7"/>
        <path id="패스_495" data-name="패스 495" d="M86.839,23.487a.457.457,0,1,0,.647-.647l-1.372-1.372a.457.457,0,1,0-.647.647Z" transform="translate(-83.504 -20.419)" fill="#7a5cc5" stroke="#7a5cc5" stroke-width="0.7"/>
      </g>
    </g>
  </g>
</svg>
